<svg id="eByQSxlz8n41" xmlns="http://www.w3.org/2000/svg" xmlns:xlink="http://www.w3.org/1999/xlink" viewBox="0 0 100 100" shape-rendering="geometricPrecision" text-rendering="geometricPrecision" project-id="05e9bebadb224021b90bd23ffaf5eec2" export-id="3a19c931741b4a6cb78f89d67b2ad1c2" cached="false"><rect width="5" height="142" rx="0" ry="0" transform="matrix(.707107 0.707107-.707107 0.707107 98.436815-1.972348)" stroke-width="0"/><rect width="5" height="15" rx="0" ry="0" transform="matrix(.707107 0.707107-.707107 0.707107 41.866361 46.503025)" stroke-width="0"/><rect width="5" height="15" rx="0" ry="0" transform="matrix(.707107-.707107 0.707107 0.707107 31.321354 42.890373)" stroke-width="0"/><rect width="5" height="15" rx="0" ry="0" transform="matrix(-.707107 0.707107 0.707107 0.707107 58.013755 46.435373)" stroke-width="0"/><rect width="5" height="15" rx="0" ry="0" transform="matrix(-.707107 0.707107 0.707107 0.707107 42.92032 31.324898)" stroke-width="0"/><rect width="5" height="15" rx="0" ry="0" transform="matrix(-.707107-.707107-.707107 0.707107 68.619175 42.880907)" stroke-width="0"/><rect width="5" height="15" rx="0" ry="0" transform="matrix(-.707107-.707107-.707107 0.707107 60.615215 34.84696)" stroke-width="0"/><rect width="5" height="15" rx="0" ry="0" transform="matrix(-.707107-.707107-.707107 0.707107 53.53888 58.05147)" stroke-width="0"/><rect width="5" height="15" rx="0" ry="0" transform="matrix(-.707107 0.707107 0.707107 0.707107 50.013881 54.527004)" stroke-width="0"/><rect width="5" height="142" rx="0" ry="0" transform="matrix(.707107-.707107 0.707107 0.707107-1.972348 1.563186)" stroke-width="0"/></svg>
